<?xml version="1.0" encoding="UTF-8"?>
<svg width="300" height="300" viewBox="0 0 64 64" xmlns="http://www.w3.org/2000/svg">
    <title>ScreenRest Logo Paused</title>
    <defs>
        <linearGradient id="bgGrad" x1="0%" y1="0%" x2="100%" y2="100%">
            <stop offset="0%" style="stop-color:#26A69A;stop-opacity:1" />
            <stop offset="100%" style="stop-color:#00897B;stop-opacity:1" />
        </linearGradient>
        <linearGradient id="screenGlow" x1="50%" y1="0%" x2="50%" y2="100%">
            <stop offset="0%" style="stop-color:#E0F2F1;stop-opacity:1" />
            <stop offset="100%" style="stop-color:#B2DFDB;stop-opacity:1" />
        </linearGradient>
    </defs>
    <g opacity="0.5">
        <rect x="0" y="0" width="64" height="64" rx="14" fill="url(#bgGrad)" />
        <rect x="14" y="12" width="36" height="26" rx="3" fill="url(#screenGlow)" />
        <rect x="26" y="38" width="12" height="3" rx="1" fill="#E0F2F1" opacity="0.8" />
        <rect x="22" y="41" width="20" height="2.5" rx="1.25" fill="#E0F2F1" opacity="0.6" />
        <path d="M36 20 A7 7 0 1 0 36 32 A5 5 0 1 1 36 20Z" fill="#26A69A" />
        <circle cx="39" cy="20.5" r="1.5" fill="#FFB300" />
        <circle cx="37.5" cy="17.5" r="0.9" fill="#FFB300" opacity="0.7" />
        <circle cx="41.5" cy="23" r="0.7" fill="#FFB300" opacity="0.5" />
        <rect x="14" y="48" width="36" height="5" rx="2.5" fill="#00897B" opacity="0.3" />
        <circle cx="20" cy="50.5" r="1" fill="#E0F2F1" opacity="0.4" />
        <circle cx="24" cy="50.5" r="1" fill="#E0F2F1" opacity="0.4" />
        <circle cx="28" cy="50.5" r="1" fill="#E0F2F1" opacity="0.4" />
    </g>
    <rect x="20" y="16" width="8" height="32" rx="2" fill="#000000" />
    <rect x="36" y="16" width="8" height="32" rx="2" fill="#000000" />
</svg>
